<mxfile host="app.diagrams.net" modified="2022-08-02T05:48:22.750Z" agent="5.0 (Windows NT 10.0; WOW64) AppleWebKit/537.36 (KHTML, like Gecko) Chrome/103.0.0.0 Safari/537.36" etag="VM5LJNBDCVMB0wsFvI7z" version="20.2.2" type="github">
  <diagram id="C5RBs43oDa-KdzZeNtuy" name="Page-1">
    <mxGraphModel dx="1422" dy="762" grid="1" gridSize="10" guides="1" tooltips="1" connect="1" arrows="1" fold="1" page="1" pageScale="1" pageWidth="827" pageHeight="1169" math="0" shadow="0">
      <root>
        <mxCell id="WIyWlLk6GJQsqaUBKTNV-0" />
        <mxCell id="WIyWlLk6GJQsqaUBKTNV-1" parent="WIyWlLk6GJQsqaUBKTNV-0" />
        <mxCell id="boqk1mAY8Oaq54TiRedi-2" value="" style="edgeStyle=orthogonalEdgeStyle;rounded=0;orthogonalLoop=1;jettySize=auto;html=1;" edge="1" parent="WIyWlLk6GJQsqaUBKTNV-1" source="boqk1mAY8Oaq54TiRedi-0" target="boqk1mAY8Oaq54TiRedi-1">
          <mxGeometry relative="1" as="geometry" />
        </mxCell>
        <mxCell id="boqk1mAY8Oaq54TiRedi-0" value="提交考试" style="ellipse;whiteSpace=wrap;html=1;" vertex="1" parent="WIyWlLk6GJQsqaUBKTNV-1">
          <mxGeometry x="354" y="50" width="126" height="60" as="geometry" />
        </mxCell>
        <mxCell id="boqk1mAY8Oaq54TiRedi-4" value="" style="edgeStyle=orthogonalEdgeStyle;rounded=0;orthogonalLoop=1;jettySize=auto;html=1;" edge="1" parent="WIyWlLk6GJQsqaUBKTNV-1" source="boqk1mAY8Oaq54TiRedi-1" target="boqk1mAY8Oaq54TiRedi-3">
          <mxGeometry relative="1" as="geometry" />
        </mxCell>
        <mxCell id="boqk1mAY8Oaq54TiRedi-7" value="" style="edgeStyle=orthogonalEdgeStyle;rounded=0;orthogonalLoop=1;jettySize=auto;html=1;" edge="1" parent="WIyWlLk6GJQsqaUBKTNV-1" source="boqk1mAY8Oaq54TiRedi-1" target="boqk1mAY8Oaq54TiRedi-6">
          <mxGeometry relative="1" as="geometry" />
        </mxCell>
        <mxCell id="boqk1mAY8Oaq54TiRedi-1" value="是否登陆" style="rhombus;whiteSpace=wrap;html=1;" vertex="1" parent="WIyWlLk6GJQsqaUBKTNV-1">
          <mxGeometry x="350.5" y="180" width="133" height="60" as="geometry" />
        </mxCell>
        <mxCell id="boqk1mAY8Oaq54TiRedi-3" value="返回结果" style="ellipse;whiteSpace=wrap;html=1;" vertex="1" parent="WIyWlLk6GJQsqaUBKTNV-1">
          <mxGeometry x="620" y="180" width="120" height="60" as="geometry" />
        </mxCell>
        <mxCell id="boqk1mAY8Oaq54TiRedi-5" value="否" style="text;html=1;align=center;verticalAlign=middle;resizable=0;points=[];autosize=1;strokeColor=none;fillColor=none;" vertex="1" parent="WIyWlLk6GJQsqaUBKTNV-1">
          <mxGeometry x="520" y="185" width="40" height="30" as="geometry" />
        </mxCell>
        <mxCell id="boqk1mAY8Oaq54TiRedi-11" value="" style="edgeStyle=orthogonalEdgeStyle;rounded=0;orthogonalLoop=1;jettySize=auto;html=1;" edge="1" parent="WIyWlLk6GJQsqaUBKTNV-1" source="boqk1mAY8Oaq54TiRedi-6" target="boqk1mAY8Oaq54TiRedi-10">
          <mxGeometry relative="1" as="geometry" />
        </mxCell>
        <mxCell id="boqk1mAY8Oaq54TiRedi-14" value="" style="edgeStyle=orthogonalEdgeStyle;rounded=0;orthogonalLoop=1;jettySize=auto;html=1;" edge="1" parent="WIyWlLk6GJQsqaUBKTNV-1" source="boqk1mAY8Oaq54TiRedi-6" target="boqk1mAY8Oaq54TiRedi-13">
          <mxGeometry relative="1" as="geometry" />
        </mxCell>
        <mxCell id="boqk1mAY8Oaq54TiRedi-6" value="是否为决赛" style="rhombus;whiteSpace=wrap;html=1;" vertex="1" parent="WIyWlLk6GJQsqaUBKTNV-1">
          <mxGeometry x="350.5" y="320" width="133" height="60" as="geometry" />
        </mxCell>
        <mxCell id="boqk1mAY8Oaq54TiRedi-8" value="是" style="text;html=1;align=center;verticalAlign=middle;resizable=0;points=[];autosize=1;strokeColor=none;fillColor=none;" vertex="1" parent="WIyWlLk6GJQsqaUBKTNV-1">
          <mxGeometry x="410" y="265" width="40" height="30" as="geometry" />
        </mxCell>
        <mxCell id="boqk1mAY8Oaq54TiRedi-17" value="" style="edgeStyle=orthogonalEdgeStyle;rounded=0;orthogonalLoop=1;jettySize=auto;html=1;" edge="1" parent="WIyWlLk6GJQsqaUBKTNV-1" source="boqk1mAY8Oaq54TiRedi-10" target="boqk1mAY8Oaq54TiRedi-16">
          <mxGeometry relative="1" as="geometry" />
        </mxCell>
        <mxCell id="boqk1mAY8Oaq54TiRedi-10" value="获取用户试卷" style="whiteSpace=wrap;html=1;" vertex="1" parent="WIyWlLk6GJQsqaUBKTNV-1">
          <mxGeometry x="620" y="320" width="120" height="60" as="geometry" />
        </mxCell>
        <mxCell id="boqk1mAY8Oaq54TiRedi-12" value="否" style="text;html=1;align=center;verticalAlign=middle;resizable=0;points=[];autosize=1;strokeColor=none;fillColor=none;" vertex="1" parent="WIyWlLk6GJQsqaUBKTNV-1">
          <mxGeometry x="520" y="325" width="40" height="30" as="geometry" />
        </mxCell>
        <mxCell id="boqk1mAY8Oaq54TiRedi-26" value="" style="edgeStyle=orthogonalEdgeStyle;rounded=0;orthogonalLoop=1;jettySize=auto;html=1;" edge="1" parent="WIyWlLk6GJQsqaUBKTNV-1" source="boqk1mAY8Oaq54TiRedi-13" target="boqk1mAY8Oaq54TiRedi-25">
          <mxGeometry relative="1" as="geometry" />
        </mxCell>
        <mxCell id="boqk1mAY8Oaq54TiRedi-13" value="通过redis异步交卷" style="whiteSpace=wrap;html=1;" vertex="1" parent="WIyWlLk6GJQsqaUBKTNV-1">
          <mxGeometry x="357" y="460" width="120" height="60" as="geometry" />
        </mxCell>
        <mxCell id="boqk1mAY8Oaq54TiRedi-15" value="是" style="text;html=1;align=center;verticalAlign=middle;resizable=0;points=[];autosize=1;strokeColor=none;fillColor=none;" vertex="1" parent="WIyWlLk6GJQsqaUBKTNV-1">
          <mxGeometry x="410" y="395" width="40" height="30" as="geometry" />
        </mxCell>
        <mxCell id="boqk1mAY8Oaq54TiRedi-20" value="" style="edgeStyle=orthogonalEdgeStyle;rounded=0;orthogonalLoop=1;jettySize=auto;html=1;" edge="1" parent="WIyWlLk6GJQsqaUBKTNV-1" source="boqk1mAY8Oaq54TiRedi-16" target="boqk1mAY8Oaq54TiRedi-19">
          <mxGeometry relative="1" as="geometry" />
        </mxCell>
        <mxCell id="boqk1mAY8Oaq54TiRedi-16" value="交卷" style="whiteSpace=wrap;html=1;" vertex="1" parent="WIyWlLk6GJQsqaUBKTNV-1">
          <mxGeometry x="620" y="460" width="120" height="60" as="geometry" />
        </mxCell>
        <mxCell id="boqk1mAY8Oaq54TiRedi-28" value="" style="edgeStyle=orthogonalEdgeStyle;rounded=0;orthogonalLoop=1;jettySize=auto;html=1;" edge="1" parent="WIyWlLk6GJQsqaUBKTNV-1" source="boqk1mAY8Oaq54TiRedi-19" target="boqk1mAY8Oaq54TiRedi-27">
          <mxGeometry relative="1" as="geometry" />
        </mxCell>
        <mxCell id="boqk1mAY8Oaq54TiRedi-19" value="处理异步提交的试题答案" style="whiteSpace=wrap;html=1;" vertex="1" parent="WIyWlLk6GJQsqaUBKTNV-1">
          <mxGeometry x="620" y="600" width="120" height="60" as="geometry" />
        </mxCell>
        <mxCell id="boqk1mAY8Oaq54TiRedi-25" value="结束" style="ellipse;whiteSpace=wrap;html=1;" vertex="1" parent="WIyWlLk6GJQsqaUBKTNV-1">
          <mxGeometry x="357" y="600" width="120" height="60" as="geometry" />
        </mxCell>
        <mxCell id="boqk1mAY8Oaq54TiRedi-30" value="" style="edgeStyle=orthogonalEdgeStyle;rounded=0;orthogonalLoop=1;jettySize=auto;html=1;" edge="1" parent="WIyWlLk6GJQsqaUBKTNV-1" source="boqk1mAY8Oaq54TiRedi-27" target="boqk1mAY8Oaq54TiRedi-29">
          <mxGeometry relative="1" as="geometry" />
        </mxCell>
        <mxCell id="boqk1mAY8Oaq54TiRedi-35" value="" style="edgeStyle=orthogonalEdgeStyle;rounded=0;orthogonalLoop=1;jettySize=auto;html=1;" edge="1" parent="WIyWlLk6GJQsqaUBKTNV-1" source="boqk1mAY8Oaq54TiRedi-27" target="boqk1mAY8Oaq54TiRedi-34">
          <mxGeometry relative="1" as="geometry" />
        </mxCell>
        <mxCell id="boqk1mAY8Oaq54TiRedi-27" value="是否关联环节" style="rhombus;whiteSpace=wrap;html=1;" vertex="1" parent="WIyWlLk6GJQsqaUBKTNV-1">
          <mxGeometry x="605" y="710" width="150" height="90" as="geometry" />
        </mxCell>
        <mxCell id="boqk1mAY8Oaq54TiRedi-42" value="" style="edgeStyle=orthogonalEdgeStyle;rounded=0;orthogonalLoop=1;jettySize=auto;html=1;" edge="1" parent="WIyWlLk6GJQsqaUBKTNV-1" source="boqk1mAY8Oaq54TiRedi-29" target="boqk1mAY8Oaq54TiRedi-41">
          <mxGeometry relative="1" as="geometry" />
        </mxCell>
        <mxCell id="boqk1mAY8Oaq54TiRedi-29" value="计算成绩" style="whiteSpace=wrap;html=1;" vertex="1" parent="WIyWlLk6GJQsqaUBKTNV-1">
          <mxGeometry x="390" y="725" width="120" height="60" as="geometry" />
        </mxCell>
        <mxCell id="boqk1mAY8Oaq54TiRedi-31" value="不关联" style="text;html=1;align=center;verticalAlign=middle;resizable=0;points=[];autosize=1;strokeColor=none;fillColor=none;" vertex="1" parent="WIyWlLk6GJQsqaUBKTNV-1">
          <mxGeometry x="540" y="725" width="60" height="30" as="geometry" />
        </mxCell>
        <mxCell id="boqk1mAY8Oaq54TiRedi-39" style="edgeStyle=orthogonalEdgeStyle;rounded=0;orthogonalLoop=1;jettySize=auto;html=1;" edge="1" parent="WIyWlLk6GJQsqaUBKTNV-1" source="boqk1mAY8Oaq54TiRedi-34">
          <mxGeometry relative="1" as="geometry">
            <mxPoint x="450" y="790" as="targetPoint" />
          </mxGeometry>
        </mxCell>
        <mxCell id="boqk1mAY8Oaq54TiRedi-34" value="成绩是否可以发布" style="rhombus;whiteSpace=wrap;html=1;" vertex="1" parent="WIyWlLk6GJQsqaUBKTNV-1">
          <mxGeometry x="605" y="880" width="150" height="90" as="geometry" />
        </mxCell>
        <mxCell id="boqk1mAY8Oaq54TiRedi-36" value="关联" style="text;html=1;align=center;verticalAlign=middle;resizable=0;points=[];autosize=1;strokeColor=none;fillColor=none;" vertex="1" parent="WIyWlLk6GJQsqaUBKTNV-1">
          <mxGeometry x="665" y="825" width="50" height="30" as="geometry" />
        </mxCell>
        <mxCell id="boqk1mAY8Oaq54TiRedi-40" value="可以" style="text;html=1;align=center;verticalAlign=middle;resizable=0;points=[];autosize=1;strokeColor=none;fillColor=none;" vertex="1" parent="WIyWlLk6GJQsqaUBKTNV-1">
          <mxGeometry x="505" y="895" width="50" height="30" as="geometry" />
        </mxCell>
        <mxCell id="boqk1mAY8Oaq54TiRedi-44" value="" style="edgeStyle=orthogonalEdgeStyle;rounded=0;orthogonalLoop=1;jettySize=auto;html=1;" edge="1" parent="WIyWlLk6GJQsqaUBKTNV-1" source="boqk1mAY8Oaq54TiRedi-41" target="boqk1mAY8Oaq54TiRedi-43">
          <mxGeometry relative="1" as="geometry" />
        </mxCell>
        <mxCell id="boqk1mAY8Oaq54TiRedi-41" value="填充未回答的题" style="whiteSpace=wrap;html=1;" vertex="1" parent="WIyWlLk6GJQsqaUBKTNV-1">
          <mxGeometry x="190" y="725" width="120" height="60" as="geometry" />
        </mxCell>
        <mxCell id="boqk1mAY8Oaq54TiRedi-46" value="" style="edgeStyle=orthogonalEdgeStyle;rounded=0;orthogonalLoop=1;jettySize=auto;html=1;" edge="1" parent="WIyWlLk6GJQsqaUBKTNV-1" source="boqk1mAY8Oaq54TiRedi-43" target="boqk1mAY8Oaq54TiRedi-45">
          <mxGeometry relative="1" as="geometry" />
        </mxCell>
        <mxCell id="boqk1mAY8Oaq54TiRedi-43" value="记录错题" style="whiteSpace=wrap;html=1;" vertex="1" parent="WIyWlLk6GJQsqaUBKTNV-1">
          <mxGeometry x="190" y="865" width="120" height="60" as="geometry" />
        </mxCell>
        <mxCell id="boqk1mAY8Oaq54TiRedi-45" value="交卷成功" style="ellipse;whiteSpace=wrap;html=1;" vertex="1" parent="WIyWlLk6GJQsqaUBKTNV-1">
          <mxGeometry x="190" y="1005" width="120" height="60" as="geometry" />
        </mxCell>
      </root>
    </mxGraphModel>
  </diagram>
</mxfile>
